<svg xmlns="http://www.w3.org/2000/svg" xmlns:xlink="http://www.w3.org/1999/xlink" width="118" height="43" viewBox="0 0 118 43">
    <defs>
        <path id="a" d="M0 18.554V.004h86.274v18.55H0z"/>
        <path id="c" d="M.037 13.669H75.07V.034H.037V13.67z"/>
        <path id="e" d="M.041.028h40.344v40.287H.041V.028z"/>
    </defs>
    <g fill="none" fill-rule="evenodd">
        <g transform="translate(0 14.228)">
            <mask id="b" fill="#fff">
                <use xlink:href="#a"/>
            </mask>
            <path fill="#121313" d="M85.696.72c-.358 0-.812.17-1.038.38-.092.106-.197.423-.23.592-.005.38.086.59.289.717.1.084.8.021.953-.063.265-.169.52-.507.59-.908.033-.19.008-.443-.068-.57-.038-.063-.2-.147-.496-.147m-.494 10.044c-.656.654-1.076.928-1.35.928-.19 0-.242-.169-.173-.548.194-.992 1.15-4.179 1.437-5.318.277-.97.249-1.477-.025-1.477-.528 0-1.873.866-2.776 1.73-.047.064-.155.422-.122.549-.003.042.06.063.06.063.533-.4.95-.633 1.181-.633.106 0 .136.17.053.465-.34 1.266-.895 3.228-1.322 4.852-.392 1.414-.24 1.988.202 1.988.443 0 1.707-.595 2.789-1.924.05-.106.119-.507.105-.612.003-.042-.059-.063-.059-.063m-7.1 2.599c.569 0 1.84-.7 2.805-1.86.07-.085.16-.507.151-.676-.017-.063-.055-.106-.077-.106-.723.718-1.119.95-1.33.95-.126 0-.2-.169-.157-.485.152-.992.684-2.912 1.081-4.41.364-1.309.57-1.857.908-2.174.025-.063-.027-.231-.088-.253-.3.064-1.01.274-1.405.485-.153.085-.267.212-.373.528-.234.654-.636 2.216-.855 2.954-.197.106-2.897.106-3.337.063l.601-2.32c.174-.697.306-1.71-.052-1.71-.528 0-1.831.866-2.784 1.857-.026.064-.11.38-.104.59-.004.064.034.128.08.085.537-.464 1.002-.801 1.214-.801.147 0 .154.21.093.485-.282 1.667-1.643 5.844-1.73 6.502-.007.106.022.296.128.296.297-.022 1.277-.49 1.501-.68-.013-.421.148-.928.348-1.687l.5-1.773c.19 0 1.159.021 1.791.021.59 0 1.314-.084 1.576-.21l-.632 2.447c-.285 1.097-.254 1.882.147 1.882M64.683 6.84c.585-.528 1.025-.802 1.257-.802.127 0 .11.233.077.422-.09.38-.417 1.477-.555 1.963-.26 1.012-.15 1.582.693 1.582.844 0 2.278-.612 3.607-1.857.024-.042.086-.02.062.021l-.88 3.313c-.313 1.182-.276 1.882.167 1.882.59 0 1.91-.785 2.804-1.84.07-.084.161-.506.152-.675.004-.063-.058-.084-.078-.105-.768.76-1.137.907-1.348.907-.126 0-.198-.19-.134-.506.24-1.35 1.208-4.727 1.493-5.508.158-.464.368-.76.577-1.034.025-.063-.027-.231-.089-.253a5.889 5.889 0 0 0-1.578.57c-.203.19-.476 1.097-.584 1.456-.275.928-1.855 2.447-2.888 2.447-.401 0-.575-.232-.4-.95.12-.527.443-1.54.618-2.257.205-.844.129-1.266-.146-1.266-.485 0-1.892.844-2.803 1.836-.047.063-.134.422-.125.59.019.043.08.064.101.064M64.504.72c-.358 0-.813.17-1.038.38-.092.106-.197.423-.23.592-.005.38.086.59.289.717.1.084.8.021.953-.063.265-.169.52-.507.59-.908.033-.19.008-.443-.067-.57-.038-.063-.201-.147-.497-.147m-.494 10.044c-.657.654-1.076.928-1.35.928-.19 0-.241-.169-.173-.548.194-.992 1.149-4.179 1.437-5.318.278-.97.249-1.477-.025-1.477-.528 0-1.873.866-2.776 1.73-.046.064-.155.422-.122.549-.002.042.06.063.06.063.533-.4.95-.633 1.181-.633.106 0 .136.17.053.465-.34 1.266-.895 3.228-1.322 4.852-.392 1.414-.24 1.988.202 1.988.443 0 1.707-.595 2.79-1.924.048-.106.118-.507.104-.612.003-.042-.059-.063-.059-.063m-6.02-3.967s.084 0 .083.02c-.303 1.035-1.178 4.284-1.333 5.002-.185.865-.145 1.522.255 1.522.697 0 1.943-.657 2.937-1.923.069-.085.18-.486.17-.654.005-.064-.055-.106-.075-.127-.525.59-1.125 1.034-1.442 1.034-.168 0-.217-.21-.175-.527.18-1.098.738-3.714 1.019-4.727.306-1.097.44-1.52.65-1.794.068-.084-.068-.252-.11-.252-.19 0-.867.337-1.222.59-.11.063-.388.443-.503.57-1.142 1.287-2.83 3.777-3.646 4.916-.048.084-.108.043-.126 0-.23-1.266-.557-2.975-.77-4.495-.041-.316-.12-1.033-.095-1.392.007-.106-.113-.19-.198-.19-.236.063-1.046.802-1.102 1.013-.063.295-.376 1.182-.593 1.878-.407 1.33-.963 2.996-1.211 3.545-.198.422-.346.738-.664.76-.295 0-.705-.17-1.075-.36-.21.296-.328.782-.35 1.098.018.675.462 1.016.905 1.016 1.097 0 1.823-1.987 2.258-3.422l.897-2.953h.064c.151 1.181.614 4.916.628 6.249.084.02.601-.148.735-.257.942-1.751 3.28-5.106 4.088-6.14M49.413.72c-.358 0-.813.169-1.038.38-.092.105-.198.422-.23.59-.005.38.086.591.288.718.1.084.8.021.954-.063.264-.169.52-.507.589-.908.034-.19.009-.443-.067-.57-.038-.063-.2-.147-.496-.147m-.494 10.044c-.657.654-1.076.928-1.35.928-.19 0-.242-.169-.174-.548.194-.992 1.15-4.179 1.438-5.318.277-.97.248-1.477-.026-1.477-.527 0-1.873.866-2.775 1.73-.047.064-.155.422-.122.549-.003.042.059.063.059.063.533-.4.95-.633 1.182-.633.106 0 .136.17.053.465-.34 1.266-.895 3.228-1.322 4.852-.392 1.414-.241 1.988.202 1.988s1.707-.595 2.789-1.924c.05-.106.118-.507.104-.612.003-.042-.058-.063-.058-.063m-11.4-3.334c.694-.907 1.352-1.583 1.71-1.583.233 0 .363.254.504.654.174.549.392 1.372.567 2.216.036.084-.015.211-.039.253a22.912 22.912 0 0 1-1.793 2.174c-.454.464-.692.569-.903.569-.254 0-.54-.443-.355-1.603-.016-.085-.49.063-.514.105-.328.485-.613 1.266-.655 1.878-.053.78.188 1.27.673 1.27.295 0 .662-.127 1.18-.616.609-.57 1.596-1.751 2.55-3.06.023-.02.066-.041.085 0 .217.844.44 1.9.62 2.364.31.995.67 1.312 1.007 1.312.674 0 1.96-.911 2.733-2.346.025-.063.06-.57.005-.696-.04-.043-.124-.043-.125-.021-.842 1.202-1.326 1.498-1.62 1.498-.423 0-.694-.36-1.414-3.398a.483.483 0 0 1 .032-.168c1.337-1.667 2.065-2.448 2.466-2.448.274 0 .417.38.318 1.52-.009.126.533-.085.561-.19.117-.17.45-1.034.511-1.92.032-.465-.09-.845-.449-.845-.316 0-.875.148-1.804 1.097-.634.634-1.211 1.372-1.72 2.026-.025.063-.109.042-.127 0a37.09 37.09 0 0 0-.515-2.026c-.154-.527-.411-1.097-.79-1.097-.802 0-2.25 1.435-2.822 2.406-.028.105-.056.506.02.633-.002.042.082.042.103.042M30.35 9.773c.127-1.857 1.108-4.495 2.732-4.495 1.222.021 1.436 1.224 1.35 2.47-.159 2.341-1.389 4.6-2.738 4.6-1.055 0-1.46-.866-1.344-2.575m3.85-5.423c-.738 0-2.055.443-3.008 1.118-1.595 1.119-2.364 3.123-2.489 4.96-.106 1.56.454 2.936 1.846 2.936.506 0 1.471-.233 2.35-.742 2.037-1.119 3.07-3.271 3.218-5.444.087-1.287-.335-2.828-1.917-2.828m-6.099 2.448c.1-1.456-.36-2.448-1.14-2.448-1.034 0-2.875 1.33-4.205 2.891-.044.021-.107.021-.106 0 .295-1.224.601-2.321.688-2.975.016-.232-.137-.465-.242-.465-.422 0-2.318 1.52-3.068 2.3-.05.106-.138.486-.127.634.018.042.081.042.123.042.606-.528 1.116-.886 1.305-.886.148 0 .156.19.12.4-.26 1.35-1.133 4.875-1.51 6.394-.385 1.62-.8 3.365-.989 3.974-.211.63-.352.84-.854 1.03-.304.127-.54.19-.927.296-.068.063-.117.485-.081.569 1.67-.295 3.604-.527 4.849-.527.088-.063.201-.486.144-.57-.315-.02-.737-.02-1.07-.085-.48-.084-.527-.312-.471-.819.183-1.153.593-2.834.767-3.53.243.15.718.298 1.098.298 1.054 0 2.327-.72 3.221-1.46 1.317-1.075 2.333-2.974 2.475-5.063m-4.911 5.528c-.57 0-1.184-.274-1.426-.739-.038-.063-.069-.232-.036-.4.045-.359.276-1.266.49-1.942.139-.485.401-.928.587-1.181 1.18-1.54 2.373-2.321 2.985-2.321.4 0 .733.38.647 1.646-.11 1.624-.699 3.44-1.773 4.346-.494.444-.863.591-1.474.591m-8.396-5.95c.756-.57 1.36-.76 1.972-.76.759 0 1.28.401 1.231 1.119-.048.4-.303.738-.683 1.055-.624.485-2.028 1.287-2.646 1.688-1.08.675-1.306 1.202-1.346 1.793-.068.992.58 2.03 2.16 2.03.866 0 1.79-.254 2.73-1.06.292-.252.729-.78.874-1.054-.013-.127-.123-.359-.205-.401-.814.801-1.538 1.224-2.467 1.224-.928 0-1.57-.465-1.516-1.266.03-.443.327-.781.748-1.077.708-.485 1.696-1.054 2.469-1.56.993-.655 1.323-1.161 1.365-1.774.085-1.244-.754-1.94-1.83-1.94-.906 0-1.822.442-2.557 1.012a3.756 3.756 0 0 0-.41.739c.018.063.072.19.111.232M8.745 2.24c.02 0 .085-.02.107-.02.106.906.314 3.122.444 4.62.015.085-.075.169-.117.169-.234.02-.803.02-1.288.02-.928 0-1.496-.02-1.684-.041-.062-.022-.037-.085-.032-.148.604-1.14 1.968-3.503 2.57-4.6M.091 12.495c-.089.063-.119.507-.062.594.317 0 1.02-.063 2.18-.063 1.266 0 2.169.063 2.59.063.091-.087.165-.552.105-.615a14.724 14.724 0 0 1-1.021-.169c-.478-.106-.5-.422-.349-.76.299-.675 1.301-2.384 1.966-3.481.024-.042.137-.148.221-.148.192-.02.276-.02 1.563-.02.907 0 1.666 0 1.98.02.043 0 .124.043.119.127.126.928.316 2.785.34 3.671.011.148-.072.443-.354.549-.302.105-.727.147-1.153.21-.089.064-.141.529-.084.616.38 0 1.713-.063 2.64-.063.95 0 1.958.063 2.401.063.108-.042.184-.53.105-.615-1.484-.19-1.67-.253-1.866-1.71-.24-1.75-.903-8.418-1.01-9.62-.04-.36-.088-.887-.07-1.14-.17.02-.383.042-.615.042-.232 0-.442-.021-.609-.042-.103.274-.326.759-.612 1.244-.723 1.33-3.877 6.753-5.528 9.306-1.058 1.603-1.32 1.73-2.877 1.941" mask="url(#b)"/>
        </g>
        <g transform="translate(24.603 28.987)">
            <mask id="d" fill="#fff">
                <use xlink:href="#c"/>
            </mask>
            <path fill="#121313" d="M74.508 1.047c-.358 0-.767.127-.993.338-.113.105-.217.4-.25.57-.004.38.082.654.327.78.078.085.76 0 .869-.063.307-.169.499-.506.59-.907.032-.17.03-.443-.048-.55-.038-.062-.2-.168-.495-.168zm-3.143 0c-.358 0-.81.148-1.015.359-.091.105-.198.422-.209.59-.003.36.106.613.308.739.1.085.78 0 .87-.063.306-.169.519-.506.608-.886.033-.169.01-.444-.067-.57-.037-.063-.22-.17-.495-.17zm1.26 10.002c-.657.654-1.076.928-1.35.928-.19 0-.242-.169-.174-.549.195-.991 1.15-4.178 1.438-5.317.277-.97.248-1.477-.026-1.477-.506 0-1.851.865-2.775 1.73-.046.063-.155.422-.122.549-.003.042.06.063.06.063.554-.4.95-.632 1.181-.632.106 0 .136.168.053.463a389.332 389.332 0 0 0-1.322 4.854c-.392 1.413-.241 1.987.202 1.987s1.707-.595 2.789-1.924c.05-.106.119-.506.105-.612.002-.042-.06-.063-.06-.063zM68.938 1.005c-.359 0-.813.169-1.039.38-.091.105-.197.422-.23.59-.004.38.087.591.289.718.1.084.8.021.953-.063.265-.17.52-.507.59-.908.034-.19.008-.443-.067-.57-.038-.063-.201-.147-.496-.147zm-.495 10.044c-.656.654-1.075.928-1.35.928-.19 0-.241-.169-.173-.549.194-.991 1.15-4.178 1.438-5.317.277-.97.248-1.477-.026-1.477-.527 0-1.873.865-2.775 1.73-.047.063-.156.422-.122.549-.003.042.059.063.059.063.533-.4.95-.632 1.182-.632.105 0 .136.168.053.463-.34 1.267-.895 3.229-1.322 4.854-.392 1.413-.242 1.987.202 1.987.442 0 1.706-.595 2.788-1.924.05-.106.119-.506.105-.612.003-.042-.059-.063-.059-.063zm-8.333-4.39c.756-.569 1.36-.759 1.972-.759.759 0 1.28.401 1.23 1.119-.047.4-.302.738-.682 1.055-.624.485-2.029 1.287-2.646 1.688-1.08.675-1.306 1.202-1.346 1.793-.068.992.579 2.03 2.16 2.03.865 0 1.79-.254 2.73-1.06.292-.252.729-.78.874-1.054-.013-.127-.123-.359-.205-.401-.814.801-1.539 1.224-2.467 1.224-.928 0-1.571-.465-1.516-1.266.03-.443.327-.781.748-1.077.708-.485 1.696-1.054 2.469-1.56.993-.655 1.323-1.161 1.365-1.773.085-1.245-.754-1.942-1.83-1.942-.906 0-1.822.443-2.558 1.013a3.76 3.76 0 0 0-.408.738c.016.064.071.19.11.233zm-7.513 3.398c.126-1.857 1.108-4.495 2.732-4.495 1.222.021 1.435 1.224 1.35 2.47-.16 2.341-1.389 4.6-2.739 4.6-1.054 0-1.46-.866-1.343-2.575zm3.85-5.423c-.738 0-2.055.443-3.008 1.118-1.595 1.119-2.364 3.123-2.49 4.959-.106 1.562.454 2.937 1.847 2.937.506 0 1.47-.233 2.349-.743 2.038-1.118 3.07-3.27 3.218-5.444.088-1.286-.334-2.827-1.916-2.827zm-5.93 6.457c-.729.802-1.058.992-1.332.992-.148 0-.348-.17-.376-.992-.055-1.35.036-5.17.046-6.246.006-.084-.07-.21-.133-.21-.338 0-1.305.57-1.309.632.01.169.025.254.016.38-.025.063-.03.126-.075.19l-.699 1.266c-.703 1.35-1.888 3.566-2.554 4.368-.183.21-.406.38-.638.38-.38 0-.81-.19-1.14-.338-.095.148-.274.612-.288.823-.076.802.355 1.333.756 1.333.485 0 .968-.275 1.788-1.481 1.008-1.477 2.25-4.22 2.82-5.148.023-.043.086-.043.104 0a145.58 145.58 0 0 0-.24 5.085c-.003.97.149 1.523.55 1.523.59 0 1.795-.658 2.652-1.777a2.1 2.1 0 0 0 .13-.675l-.077-.105zm-13.56-1.034c.127-1.857 1.108-4.495 2.733-4.495 1.222.021 1.435 1.224 1.35 2.47-.16 2.341-1.39 4.6-2.74 4.6-1.054 0-1.459-.866-1.342-2.575zm3.85-5.423c-.738 0-2.054.443-3.008 1.118-1.595 1.119-2.364 3.123-2.489 4.959-.106 1.562.454 2.937 1.846 2.937.507 0 1.471-.233 2.35-.743 2.037-1.118 3.07-3.27 3.218-5.444.087-1.286-.335-2.827-1.917-2.827zm-9.266 9.014c.569 0 1.84-.7 2.805-1.86.069-.085.16-.507.151-.676-.017-.063-.055-.106-.077-.106-.724.718-1.12.95-1.33.95-.127 0-.2-.169-.157-.485.152-.992.684-2.912 1.081-4.41.363-1.309.57-1.857.907-2.174.026-.063-.026-.232-.088-.253-.3.064-1.01.274-1.404.485-.153.085-.267.211-.373.528-.235.654-.636 2.215-.855 2.954-.197.106-2.897.106-3.337.063l.601-2.32c.174-.697.306-1.71-.052-1.71-.528 0-1.831.865-2.785 1.857a2.05 2.05 0 0 0-.103.59c-.004.064.034.127.079.085.538-.464 1.003-.802 1.214-.802.148 0 .155.211.094.486-.282 1.667-1.643 5.844-1.73 6.502-.007.106.022.296.128.296.296-.022 1.277-.49 1.501-.68-.013-.421.148-.928.348-1.687l.5-1.773c.19 0 1.159.022 1.791.022.59 0 1.313-.085 1.575-.212l-.63 2.448c-.286 1.097-.255 1.882.146 1.882zM18.27 7.715c.695-.908 1.353-1.583 1.711-1.583.233 0 .363.254.504.654.174.55.392 1.372.567 2.216.036.085-.015.211-.039.253a22.912 22.912 0 0 1-1.793 2.173c-.454.465-.692.57-.904.57-.253 0-.54-.443-.354-1.603-.016-.085-.49.063-.514.105-.328.485-.613 1.266-.655 1.878-.053.78.188 1.27.673 1.27.295 0 .662-.127 1.18-.616.609-.57 1.596-1.751 2.55-3.06.023-.02.066-.041.085 0 .217.844.44 1.9.62 2.364.31.995.67 1.312 1.007 1.312.675 0 1.96-.911 2.733-2.346.025-.063.06-.57.005-.696-.04-.043-.124-.043-.125-.021-.842 1.202-1.326 1.498-1.62 1.498-.423 0-.694-.36-1.414-3.398a.482.482 0 0 1 .032-.168c1.337-1.667 2.065-2.448 2.466-2.448.274 0 .417.38.318 1.519-.009.127.533-.084.561-.19.117-.168.45-1.034.511-1.92.032-.464-.09-.844-.449-.844-.316 0-.875.148-1.804 1.097-.634.633-1.212 1.372-1.72 2.026-.025.063-.109.042-.127 0a36.973 36.973 0 0 0-.515-2.026c-.154-.527-.411-1.097-.79-1.097-.802 0-2.25 1.435-2.822 2.406-.028.105-.056.506.02.633-.003.042.082.042.103.042zm-2.01-3.08c-.759 0-2.192.611-3.088 1.37-1.32 1.119-2.03 3.187-2.134 4.706-.102 1.498.307 2.915 1.805 2.915 1.223 0 2.881-.805 3.94-2.113.074-.148.181-.485.19-.612.004-.063-.076-.127-.097-.127-1.109 1.097-2.062 1.477-2.885 1.477-1.097 0-1.478-.907-1.389-2.215.01-.148.043-.317.071-.422.006-.084.075-.17.14-.19.647-.211 1.553-.506 2.45-.97 1.332-.676 2.164-1.435 2.214-2.47.01-.78-.5-1.35-1.216-1.35zm-1.055.948c.57 0 .814.423.781.908-.041.612-.367 1.055-.872 1.35a7.593 7.593 0 0 1-2.185.802c-.042 0-.081-.042-.056-.105.455-2.026 1.551-2.955 2.332-2.955zM.643 12.758c-.11.063-.182.506-.126.615.443 0 1.924-.063 3.041-.063 1.181 0 2.443.063 3.139.063.089-.066.205-.531.126-.615-.586-.064-1.088-.127-1.418-.232-.457-.106-.586-.38-.529-.908.141-1.14 1.6-7.385 2.262-10.296.005-.064.117-.17.16-.19.297-.022 2.09-.022 2.824.042.19 0 .561.126.596.548.058.38.035 1.034-.062 1.836.077.106.585.084.654 0 .338-1.245.787-2.574 1.155-3.334.003-.042-.074-.147-.116-.147-.688.19-1.262.252-2 .252h-7.34C2.46.33 1.939.245 1.426.034c-.042 0-.15.021-.173.064C1 1.026.433 2.545.037 3.389c.035.106.444.296.596.232.568-.907.945-1.477 1.332-1.899.365-.4.753-.527 1.029-.548.424-.042 2.07-.064 2.363-.021.063 0 .12.105.115.169-.747 3.228-1.691 7.49-2.269 9.769-.26 1.055-.472 1.371-1.198 1.498-.342.063-.788.105-1.362.169z" mask="url(#d)"/>
        </g>
        <g transform="translate(76.28 .014)">
            <mask id="f" fill="#fff">
                <use xlink:href="#e"/>
            </mask>
            <path fill="#0092CA" d="M20.605.038l.677 3.272c.61.046 1.213.124 1.804.233L24.328.494c.52.113 1.031.246 1.535.397l-.193 3.338c.576.202 1.137.433 1.683.694l1.988-2.624c.47.244.93.506 1.379.784l-1.05 3.174c.5.343.982.713 1.443 1.106l2.6-2.02c.391.357.768.73 1.13 1.115L33.008 9.25c.395.46.765.94 1.11 1.44l3.035-1.277c.285.444.554.9.805 1.367l-2.495 2.222a17.1 17.1 0 0 1 .7 1.68l3.26-.448c.16.502.302 1.01.423 1.529l-2.987 1.502c.11.591.191 1.193.24 1.804l3.264.41a20.793 20.793 0 0 1 .012 1.588l-3.271.676a17.132 17.132 0 0 1-.232 1.806l3.047 1.242c-.113.52-.245 1.031-.397 1.536l-3.336-.195a16.82 16.82 0 0 1-.694 1.684l2.623 1.99c-.244.47-.506.93-.784 1.379l-3.172-1.051c-.343.502-.713.983-1.106 1.444l2.019 2.6a20.55 20.55 0 0 1-1.114 1.132l-2.791-1.836c-.46.395-.94.765-1.44 1.11l1.277 3.036c-.444.286-.9.554-1.366.806l-2.221-2.496c-.545.262-1.106.495-1.68.7l.448 3.262c-.502.16-1.011.301-1.528.423l-1.502-2.989c-.368.069-.74.126-1.115.171l.394-2.609c6.92-1.168 12.194-7.192 12.194-14.447 0-8.091-6.56-14.653-14.648-14.653-7.056 0-12.949 4.995-14.337 11.643H3.072l.017-.097L.04 16.09c.113-.52.245-1.031.397-1.535l3.336.194c.202-.577.434-1.138.694-1.684l-2.622-1.99c.243-.47.505-.93.783-1.379l3.173 1.051c.343-.501.712-.983 1.105-1.444l-2.019-2.6c.357-.392.73-.769 1.114-1.131l2.792 1.835c.459-.395.94-.765 1.44-1.11L8.955 3.262c.444-.285.9-.554 1.366-.806l2.221 2.496a17.079 17.079 0 0 1 1.681-.7L13.776.99c.502-.16 1.01-.301 1.528-.423l1.5 2.989c.592-.11 1.194-.192 1.804-.24L19.02.051a21.106 21.106 0 0 1 1.586-.013" mask="url(#f)"/>
        </g>
        <path fill="#00A659" d="M103.776 8.935c1.059 4.337 2.77 9.77-2.471 14.961-4.363 4.32-10.487 1.209-12.362 6.155-1.173-2.369-1.99-9.22 2.077-13.32 5.235-5.28 9.837-2.822 12.756-7.796"/>
        <path fill="#FEFEFE" d="M88.92 29.801c-.111-1.07-.189-3.18 1.167-5.44.93-1.551 2.533-3.173 5.263-4.577 5.354-2.755 7.953-8.711 8.357-10.422-.186 1.43-1.79 7.522-7.922 11.013-5.57 3.17-6.865 6.222-6.865 9.426"/>
        <path fill="#FEFEFE" d="M97.773 18.477c.084-2.022 1.215-4.78 1.647-5.32-.404 1.048-1.15 3.37-1.212 4.885l-.435.435m-3.852 2.271c-.318-2.563.34-4.903.994-6.004-.524 1.523-.863 4.761-.466 5.755.398.994-.59.218-.528.25m-2.982-2.52c-.785 1.466-1.039 4.09-.994 6.75l.528-.964c-.312-1.148.03-4.54.466-5.787"/>
    </g>
</svg>
