<?xml version="1.0" encoding="utf-8"?>
<!-- Generator: Adobe Illustrator 16.2.0, SVG Export Plug-In . SVG Version: 6.00 Build 0)  -->
<!DOCTYPE svg PUBLIC "-//W3C//DTD SVG 1.1//EN" "http://www.w3.org/Graphics/SVG/1.1/DTD/svg11.dtd">
<svg version="1.1" id="Layer_1" xmlns="http://www.w3.org/2000/svg" xmlns:xlink="http://www.w3.org/1999/xlink" x="0px" y="0px"
	 width="358px" height="139px" viewBox="0 0 358 139" enable-background="new 0 0 358 139" xml:space="preserve">
<g>
	<g>
		<path fill="#48A742" d="M99.21,84.287c-0.791,0.025-17.326,0.666-30.84,10.26c0.488-2.578,0.775-5.262,0.77-8.029
			c-0.029-19.825-14.6-35.508-15.227-36.168L51.419,47.7l-2.494,2.66C48.312,51.02,33.792,66.752,33.82,86.575
			c0.004,2.755,0.299,5.425,0.788,7.99C21.092,84.953,4.542,84.314,3.751,84.29l-3.645-0.116l0.118,3.645
			c0.026,0.904,0.849,22.292,14.865,36.313c10.83,10.828,26.062,13.779,32.843,14.574c1.992,0.232,5.104,0.232,7.094-0.001
			c6.777-0.796,22.014-3.747,32.848-14.573c14.02-14.021,14.84-35.409,14.867-36.314l0.113-3.644L99.21,84.287z M51.44,58.092
			c3.864,5.087,10.835,15.984,10.854,28.436c0.021,12.399-6.918,23.347-10.764,28.46c-3.866-5.1-10.84-16.028-10.862-28.422
			C40.652,74.16,47.596,63.207,51.44,58.092z M19.935,119.288C11.163,110.517,8.341,97.85,7.457,91.521
			c6.33,0.874,18.957,3.674,27.766,12.479c8.764,8.765,11.58,21.417,12.467,27.757C41.35,130.87,28.693,128.056,19.935,119.288z
			 M83.033,119.288c-8.766,8.766-21.42,11.58-27.756,12.467c0.885-6.338,3.701-18.99,12.465-27.759
			c8.771-8.77,21.438-11.583,27.768-12.471C94.634,97.85,91.837,110.481,83.033,119.288z"/>
		<path fill="#58595B" d="M67.933,36.957V21.464c4.33-1.444,7.453-5.534,7.453-10.327c0-5.992-4.871-10.883-10.875-10.902H38.436
			c-5.985,0.026-10.858,4.92-10.858,10.902c0,4.791,3.132,8.876,7.451,10.327v15.495C17.096,42.963,3.664,58.486,0.416,77.203
			c2.367,0.013,4.68,0.114,6.916,0.283c3.223-16.586,15.69-30.139,32.043-34.701l2.504-0.697V15.191l-3.408-0.014
			c-2.229-0.008-4.044-1.82-4.044-4.041c0-2.225,1.815-4.045,4.029-4.056h26.048c2.225,0.005,4.037,1.825,4.037,4.056
			c0,2.223-1.813,4.033-4.037,4.041l-3.412,0.012v26.896l2.5,0.699c16.404,4.57,28.91,18.202,32.082,34.863
			c2.189-0.229,4.49-0.406,6.871-0.506C99.277,58.448,85.849,42.953,67.933,36.957z"/>
	</g>
</g>
<g>
	<path fill="#48A742" d="M99.32,84.287c-0.791,0.025-17.326,0.666-30.84,10.26c0.488-2.578,0.775-5.262,0.77-8.029
		C69.22,66.692,54.65,51.01,54.023,50.35L51.529,47.7l-2.494,2.66c-0.613,0.659-15.133,16.392-15.105,36.215
		c0.004,2.755,0.299,5.425,0.788,7.99C21.202,84.953,4.651,84.314,3.861,84.29l-3.645-0.116l0.118,3.645
		c0.026,0.904,0.849,22.292,14.865,36.313c10.83,10.828,26.062,13.779,32.843,14.574c1.992,0.232,5.105,0.232,7.094-0.001
		c6.777-0.796,22.014-3.747,32.848-14.573c14.02-14.021,14.84-35.409,14.867-36.314l0.113-3.644L99.32,84.287z M51.55,58.092
		c3.863,5.087,10.834,15.984,10.855,28.436c0.02,12.399-6.92,23.347-10.766,28.46c-3.866-5.1-10.84-16.028-10.862-28.422
		C40.761,74.16,47.706,63.207,51.55,58.092z M20.044,119.288C11.272,110.517,8.451,97.85,7.566,91.521
		c6.33,0.874,18.957,3.674,27.766,12.479c8.765,8.765,11.58,21.417,12.467,27.757C41.459,130.87,28.802,128.056,20.044,119.288z
		 M83.142,119.288c-8.766,8.766-21.418,11.58-27.756,12.467c0.885-6.338,3.701-18.99,12.467-27.759
		c8.77-8.77,21.436-11.583,27.766-12.471C94.744,97.85,91.947,110.481,83.142,119.288z"/>
	<path fill="#58595B" d="M68.042,36.957V21.464c4.33-1.444,7.453-5.534,7.453-10.327c0-5.992-4.871-10.883-10.875-10.902H38.546
		c-5.986,0.026-10.859,4.92-10.859,10.902c0,4.791,3.132,8.876,7.451,10.327v15.495C17.206,42.963,3.773,58.486,0.525,77.203
		c2.367,0.013,4.68,0.114,6.916,0.283c3.223-16.586,15.69-30.139,32.043-34.701l2.504-0.697V15.191l-3.408-0.014
		c-2.229-0.008-4.043-1.82-4.043-4.041c0-2.225,1.814-4.045,4.029-4.056h26.047c2.227,0.005,4.039,1.825,4.039,4.056
		c0,2.223-1.813,4.033-4.039,4.041l-3.412,0.012v26.896l2.5,0.699c16.404,4.57,28.91,18.202,32.082,34.863
		c2.189-0.229,4.49-0.406,6.871-0.506C99.386,58.448,85.958,42.953,68.042,36.957z"/>
</g>
<g>
	<path fill="#48A742" d="M161.601,26.203h9.727l26.651,63.209h-11.795l-6.573-16.117h-26.923l-6.573,16.117h-11.166L161.601,26.203z
		 M156.919,62.941h18.457l-9.184-22.422L156.919,62.941z"/>
	<path fill="#48A742" d="M207.432,26.383h11.076v52.676h28.365v10.354h-39.441V26.383z"/>
	<path fill="#48A742" d="M256.686,26.383h36.02v10.355h-24.943v17.828h22.24V64.92h-22.24v24.492h-11.076V26.383z"/>
	<path fill="#48A742" d="M320.256,26.203h9.725l26.654,63.209h-11.797l-6.572-16.117h-26.924l-6.572,16.117h-11.168L320.256,26.203z
		 M315.572,62.941h18.461l-9.186-22.422L315.572,62.941z"/>
	<path fill="#58595B" d="M134.448,110.443c0-3.711,2.895-6.819,7.702-6.819c3.036,0,5.579,1.024,7.064,2.65l-2.331,3.249
		c-1.202-1.165-2.403-1.836-4.382-1.836c-2.154,0-3.462,1.094-3.462,2.721c0,5.12,11.198,3.496,11.198,11.729
		c0,4.166-3.639,6.994-8.266,6.994c-3.18,0-6.89-1.377-8.091-3.887l2.474-2.967c1.447,1.871,3.78,2.791,5.687,2.791
		c2.05,0,3.604-1.025,3.604-2.896C145.646,117.297,134.448,118.497,134.448,110.443z"/>
	<path fill="#58595B" d="M155.261,104.012h4.382l8.442,11.552l8.057-11.552h4.096v24.731h-4.309v-17.877l-7.809,10.987h-0.637
		l-7.879-10.882v17.771h-4.344V104.012z"/>
	<path fill="#58595B" d="M194.379,103.941h3.816l10.455,24.802h-4.627l-2.578-6.325h-10.563l-2.58,6.325h-4.381L194.379,103.941z
		 M192.543,118.354h7.242l-3.604-8.796L192.543,118.354z"/>
	<path fill="#58595B" d="M212.369,128.743v-24.731c1.377,0,6.818-0.07,7.525-0.07c6.746,0,8.973,3.355,8.973,7.631
		c0,4.239-2.721,6.358-4.77,7.067l7.736,10.104h-5.264l-6.816-9.257h-3.039v9.257H212.369z M216.715,108.075v7.349h2.826
		c2.508,0,4.734-1.273,4.734-3.816c0-1.943-1.061-3.602-4.594-3.602C218.869,108.006,217.883,108.041,216.715,108.075z"/>
	<path fill="#58595B" d="M231.277,104.012h20.385v4.063h-8.021v20.668h-4.346v-20.668h-8.018V104.012z"/>
	<path fill="#58595B" d="M268.803,103.941h3.816l10.457,24.802h-4.627l-2.58-6.325h-10.563l-2.58,6.325h-4.383L268.803,103.941z
		 M266.965,118.354h7.242l-3.602-8.796L266.965,118.354z"/>
	<path fill="#58595B" d="M296.227,115.424h10.033v10.246c-2.191,2.189-6.182,3.461-9.256,3.461c-8.092,0-12.895-5.053-12.895-12.754
		c0-7.102,4.768-12.753,12.328-12.753c3.533,0,5.936,0.919,7.949,2.507l-1.836,3.463c-1.238-1.165-3.428-1.906-5.582-1.906
		c-4.77,0-8.268,3.179-8.268,8.689c0,5.264,3.355,8.691,8.373,8.691c1.908,0,4.203-0.813,5.123-1.696v-3.886h-5.971V115.424z"/>
	<path fill="#58595B" d="M311.637,128.743v-24.731c1.377,0,6.818-0.07,7.525-0.07c6.746,0,8.973,3.355,8.973,7.631
		c0,4.239-2.721,6.358-4.77,7.067l7.736,10.104h-5.264l-6.816-9.257h-3.039v9.257H311.637z M315.982,108.075v7.349h2.826
		c2.508,0,4.734-1.273,4.734-3.816c0-1.943-1.061-3.602-4.594-3.602C318.137,108.006,317.146,108.041,315.982,108.075z"/>
	<path fill="#58595B" d="M344.889,103.624c7.348,0,12.895,5.05,12.895,12.753c0,7.418-5.547,12.754-12.895,12.754
		c-7.35,0-12.859-5.053-12.859-12.754C332.029,109.205,337.293,103.624,344.889,103.624z M344.889,125.068
		c5.193,0,8.303-3.815,8.303-8.691c0-5.123-3.639-8.689-8.303-8.689c-4.734,0-8.268,3.566-8.268,8.689
		C336.621,121.322,340.26,125.068,344.889,125.068z"/>
</g>
</svg>
